<svg width="201" height="101" viewBox="0 0 201 101" fill="none" xmlns="http://www.w3.org/2000/svg">
<path d="M177.208 52.3185C178.144 52.2838 178.837 52.319 179.288 52.423C179.253 52.6315 179.184 53.3766 179.08 54.6583C178.976 55.9409 178.855 57.5531 178.717 59.4942C178.578 61.4356 178.439 63.5681 178.301 65.8907C178.162 68.1787 178.041 70.4841 177.937 72.8067C177.867 75.1294 177.832 77.2961 177.832 79.3067C177.832 81.3174 177.901 82.9987 178.04 84.3507C178.179 85.7022 178.387 86.5688 178.664 86.9503C179.253 87.6436 180.121 88.129 181.265 88.4064C181.091 89.1342 180.866 89.9144 180.589 90.7462C180.346 91.5782 179.947 92.3068 179.393 92.9308C178.873 93.5548 178.11 93.9537 177.104 94.1271C176.654 94.231 176.082 94.1958 175.389 94.0226L172.893 93.3985C172.269 93.2252 171.471 93.191 170.5 93.295C169.529 93.3644 168.611 93.4679 167.744 93.6065C166.912 93.7452 166.357 93.8497 166.08 93.919C165.699 94.023 165.318 94.0743 164.937 94.0743C164.555 94.109 164.173 94.1271 163.792 94.1271C161.989 94.127 160.204 93.8145 158.437 93.1905C156.703 92.5319 155.143 91.5267 153.757 90.1749C152.37 88.8229 151.312 87.1065 150.584 85.0265C149.891 82.9465 149.701 80.4501 150.013 77.5382C150.221 75.5279 150.758 73.656 151.624 71.923C152.525 70.1897 153.635 68.6812 154.952 67.3985C156.269 66.0813 157.674 65.0762 159.164 64.3829C160.689 63.6549 162.181 63.2901 163.637 63.2901H164.521C164.832 63.2901 165.127 63.273 165.404 63.2384C166.028 63.1344 166.635 62.7877 167.225 62.1983C167.814 61.6091 168.213 60.8813 168.421 60.0148C168.525 59.5295 168.594 58.9575 168.629 58.2989C168.664 57.6403 168.681 57.2413 168.681 57.1026C168.785 56.3053 169.079 55.629 169.564 55.0743C170.05 54.4852 170.622 54.0176 171.28 53.671C172.182 53.1857 173.17 52.839 174.244 52.631C175.319 52.423 176.307 52.3185 177.208 52.3185ZM99.4434 64.0704C101.281 63.4811 103.084 63.2731 104.852 63.4464C107.59 63.7237 109.705 64.4523 111.195 65.631C112.72 66.8095 113.708 68.2651 114.159 69.9981C114.645 71.6968 114.662 73.5348 114.211 75.5108C113.968 76.4814 113.413 77.4524 112.547 78.423C111.715 79.3587 110.675 80.2083 109.428 80.9708C108.18 81.6988 106.844 82.2706 105.423 82.6866C104.036 83.0679 102.684 83.2237 101.367 83.1544C100.709 83.1198 100.362 83.3279 100.327 83.7784C100.292 84.1944 100.483 84.6627 100.899 85.1827C101.315 85.668 101.87 85.9977 102.563 86.171C104.193 86.5176 105.718 86.5347 107.14 86.2228C108.595 85.8761 109.705 85.4078 110.468 84.8185C111.092 84.3332 111.75 83.6918 112.443 82.8946C113.137 82.0627 113.709 81.2134 114.159 80.3468C115.026 80.9361 115.581 81.7853 115.823 82.8946C116.101 83.9693 116.066 85.1481 115.72 86.4308C115.408 87.7134 114.766 88.9435 113.795 90.1222C112.824 91.2661 111.508 92.2199 109.844 92.9825C108.214 93.7452 106.238 94.1441 103.915 94.1788C101.974 94.2135 100.067 93.9703 98.1953 93.4503C96.358 92.9303 94.6767 92.1333 93.1514 91.0587C91.6607 89.9841 90.4477 88.5972 89.5117 86.8985C88.5757 85.1999 88.0552 83.1719 87.9512 80.8146C87.9165 80.3293 87.9165 79.8267 87.9512 79.3067C87.9858 78.7867 88.021 78.2491 88.0557 77.6944V77.2784C88.0903 77.1398 88.1245 77.001 88.1592 76.8624C88.5058 74.7825 89.2164 72.8759 90.291 71.1427C91.4003 69.4093 92.753 67.9361 94.3477 66.7228C95.9423 65.5095 97.6408 64.6251 99.4434 64.0704ZM47.04 52.0069C47.4559 52.3536 47.837 53.0121 48.1836 53.9825C48.5302 54.9184 48.7041 55.9065 48.7041 56.9464C48.6694 57.917 48.4091 58.8357 47.9238 59.7023C47.4732 60.5689 46.6411 61.1588 45.4277 61.4708C45.0811 61.5747 44.544 61.6613 43.8164 61.7306C43.0885 61.7652 42.3255 61.8004 41.5283 61.8351C40.7657 61.8351 40.1064 61.8522 39.5518 61.8868H38.7725C36.7272 61.8868 34.9936 62.1642 33.5723 62.7189C32.151 63.2735 31.3883 64.1399 31.2842 65.3185C31.1802 66.4625 31.3018 67.2423 31.6484 67.6583C32.0297 68.0742 32.5144 68.4211 33.1035 68.6983C33.5195 68.8717 34.231 68.9591 35.2363 68.9591C36.2762 68.9244 37.3859 68.8199 38.5645 68.6466C39.7429 68.4733 40.8004 68.2652 41.7363 68.0226C42.7067 67.7799 43.3482 67.5376 43.6602 67.295C44.1107 67.6764 44.4224 68.4042 44.5957 69.4786C44.769 70.5185 44.7519 71.5931 44.5439 72.7023C44.3706 73.6035 44.0238 74.4357 43.5039 75.1983C42.9839 75.9263 42.2734 76.4298 41.3721 76.7071C40.6443 76.9151 40.0722 77.0357 39.6562 77.0704C39.2749 77.1051 38.9624 77.1402 38.7197 77.1749C36.0854 77.2443 34.1445 77.9721 32.8965 79.3585C31.6832 80.7105 31.1104 82.4612 31.1797 84.6105C31.2144 85.4771 31.4053 86.3093 31.752 87.1065C32.1333 87.8692 32.5322 88.4069 32.9482 88.7189C32.9136 89.0654 32.827 89.4466 32.6885 89.8624C32.5498 90.2437 32.3066 90.6949 31.96 91.2149C31.5093 91.8735 30.9022 92.4797 30.1396 93.0343C29.377 93.5889 28.3891 93.8844 27.1758 93.919C25.9279 93.919 24.8705 93.6416 24.0039 93.087C23.1373 92.4978 22.479 91.5095 22.0283 90.1231C21.6123 88.7365 21.4043 86.8291 21.4043 84.4024V82.7384C21.4043 81.6985 21.3862 80.3987 21.3516 78.839C21.3516 77.279 21.3345 75.649 21.2998 73.9503C21.2998 72.2518 21.2827 70.6918 21.248 69.2706V65.9425C21.248 64.7986 21.1958 63.5682 21.0918 62.2511C20.9878 60.9338 20.8662 59.6855 20.7275 58.5069C20.5889 57.2937 20.4683 56.3228 20.3643 55.5948C20.2256 55.0056 20.1211 54.4336 20.0518 53.879C20.0171 53.2897 20 52.7691 20 52.3185C20.2426 52.4224 20.9011 52.527 21.9756 52.631C23.0849 52.7003 24.3682 52.7696 25.8242 52.839C25.9631 52.839 26.3615 52.8561 27.0195 52.8907C27.7129 52.9254 28.5108 52.9596 29.4121 52.9942C30.3133 52.9942 31.1798 53.0123 32.0117 53.047C32.8784 53.0816 33.5376 53.0987 33.9883 53.0987H38.876C39.812 53.0641 40.6441 53.0289 41.3721 52.9942C42.4467 52.9249 43.5733 52.8214 44.752 52.6827C45.9305 52.5094 46.6933 52.2842 47.04 52.0069ZM75.4736 64.1222C76.2362 64.0529 77.0685 64.0528 77.9697 64.1222C78.8709 64.1915 79.7374 64.3654 80.5693 64.6427C81.436 64.8853 82.1646 65.2843 82.7539 65.839C83.3776 66.3935 83.7417 67.1387 83.8457 68.0743C84.019 69.3917 84.0884 71.1603 84.0537 73.379C84.019 75.5629 83.9668 77.9549 83.8975 80.5548C83.8281 83.12 83.8452 85.6507 83.9492 88.1466C83.9839 88.7706 84.1748 89.3082 84.5215 89.7589C84.9027 90.1747 85.3533 90.573 85.873 90.9542C85.6304 91.2662 85.3188 91.5958 84.9375 91.9425C84.5562 92.2891 83.9843 92.6188 83.2217 92.9308C82.4937 93.2081 81.4363 93.4332 80.0498 93.6065C79.5991 93.6412 79.0263 93.589 78.333 93.4503C77.64 93.3462 76.9469 93.0173 76.2539 92.463C75.5953 91.8737 75.0576 90.9549 74.6416 89.7071C74.2256 88.4245 74.0518 86.6729 74.1211 84.4542C74.1557 84.0728 74.1557 83.3277 74.1211 82.2189C74.1211 81.1095 74.104 79.792 74.0693 78.2667C74.0693 76.7414 74.0522 75.1636 74.0176 73.5343C74.0176 71.9052 74.0005 70.3974 73.9658 69.0108C73.9658 67.5895 73.9478 66.4449 73.9131 65.5782V64.2267C74.2251 64.192 74.7456 64.1568 75.4736 64.1222ZM65.3857 63.2911C66.079 63.1179 66.7203 63.2907 67.3096 63.8106C67.8988 64.3306 68.4185 65.0413 68.8691 65.9425C69.3545 66.8091 69.7534 67.7106 70.0654 68.6466C70.3774 69.5479 70.6196 70.3107 70.793 70.9347C70.963 71.547 71.0505 71.8587 71.0537 71.8702C71.0537 71.8702 70.6375 71.9577 69.8057 72.131C69.0083 72.2696 68.0024 72.5641 66.7891 73.0148C65.6105 73.4308 64.4315 74.072 63.2529 74.9386C62.5597 75.4585 61.9013 76.0827 61.2773 76.8106C60.6534 77.5386 60.1157 78.4744 59.665 79.6183C59.2144 80.7275 58.8857 82.2011 58.6777 84.0382C58.5737 84.9741 58.5557 85.9451 58.625 86.9503C58.6943 87.9556 58.7295 88.8058 58.7295 89.4991C58.7642 90.1229 58.8506 90.5734 58.9893 90.8507C59.1626 91.0934 59.3013 91.3014 59.4053 91.4747C58.9546 91.8907 58.1225 92.359 56.9092 92.879C55.7307 93.3642 54.4308 93.6065 53.0098 93.6065C51.6232 93.6065 50.6001 93.1562 49.9414 92.255C49.2828 91.3537 48.9531 90.1054 48.9531 88.5108C48.9531 88.1295 48.936 87.2974 48.9014 86.0148C48.9014 84.6974 48.8843 83.1197 48.8496 81.2823C48.8496 79.4451 48.8315 77.5385 48.7969 75.5626C48.7969 73.5867 48.7798 71.7495 48.7451 70.0509C48.7451 68.3177 48.728 66.9136 48.6934 65.839V64.2267C49.04 64.1573 49.6292 64.1051 50.4609 64.0704C51.3276 64.0357 52.2642 64.0709 53.2695 64.1749C54.2747 64.2789 55.2106 64.5212 56.0771 64.9024C56.4931 65.0758 57.0479 65.2496 57.7412 65.423C58.4692 65.5616 59.1626 65.631 59.8213 65.631C60.5146 65.631 61.0171 65.5264 61.3291 65.3185C61.9878 64.8331 62.647 64.4171 63.3057 64.0704C63.9989 63.7238 64.6925 63.4644 65.3857 63.2911ZM138.813 63.3429C139.403 63.2736 140.096 63.3077 140.894 63.4464C141.691 63.5504 142.471 63.8107 143.233 64.2267C144.03 64.6426 144.706 65.2319 145.261 65.9942C145.85 66.7569 146.215 67.7278 146.354 68.9064C146.596 70.9169 146.665 73.3784 146.562 76.2901C146.458 79.1675 146.422 82.6697 146.457 86.795C146.492 88.32 146.717 89.3947 147.133 90.0187C147.583 90.608 147.81 90.9024 147.81 90.9024C147.81 90.9024 147.497 91.1276 146.873 91.5782C146.284 91.9942 145.487 92.4284 144.481 92.879C143.476 93.3296 142.349 93.5547 141.102 93.5548C139.265 93.5548 138.068 93.052 137.514 92.047C136.959 91.0416 136.664 89.7413 136.629 88.1466C136.629 87.8692 136.647 87.2622 136.682 86.3263C136.716 85.3904 136.733 84.3329 136.733 83.1544C136.768 81.9412 136.768 80.8315 136.733 79.8263C136.699 78.7865 136.629 78.0587 136.525 77.6427C136.144 76.256 135.398 75.649 134.289 75.8224C133.422 75.9264 132.607 76.4289 131.845 77.3302C131.082 78.1967 130.459 79.2371 129.974 80.4503C129.488 81.6636 129.245 82.8082 129.245 83.8829C129.245 84.4375 129.211 84.9924 129.142 85.547C129.107 86.0669 129.072 86.5525 129.037 87.003C129.003 87.315 129.038 87.6961 129.142 88.1466C129.28 88.5972 129.523 88.9611 129.869 89.2384C129.626 89.6544 129.141 90.192 128.413 90.8507C127.72 91.5093 126.957 92.1164 126.125 92.671C125.328 93.1909 124.634 93.4855 124.045 93.5548C123.49 93.5894 122.832 93.4156 122.069 93.0343C121.341 92.653 120.7 92.0811 120.146 91.3185C119.626 90.5558 119.348 89.6373 119.313 88.5626V86.6388C119.348 85.6334 119.365 84.4195 119.365 82.9981C119.4 81.577 119.417 80.0692 119.417 78.4747C119.452 76.8801 119.469 75.3374 119.469 73.8468V69.9981C119.469 69.0625 119.348 68.1614 119.105 67.295C118.897 66.3937 118.671 65.6651 118.429 65.1105C118.222 64.5257 118.119 64.231 118.117 64.2267C118.429 64.1573 118.967 64.1051 119.729 64.0704C120.527 64.0358 121.41 64.0529 122.381 64.1222C123.352 64.1915 124.305 64.3483 125.241 64.5909C126.212 64.8336 127.027 65.2145 127.686 65.7345C128.379 66.2544 129.072 66.5841 129.766 66.7228C130.493 66.8267 131.066 66.7574 131.481 66.5148C132.695 65.7175 133.925 65.024 135.173 64.4347C136.421 63.8453 137.635 63.4815 138.813 63.3429ZM166.965 73.795C166.202 72.9284 165.005 72.5465 163.376 72.6505C162.336 72.7199 161.435 73.2227 160.673 74.1583C159.945 75.0943 159.494 76.7937 159.32 79.255C159.216 80.6068 159.372 81.7336 159.788 82.6349C160.239 83.5014 160.794 84.1598 161.452 84.6105C162.145 85.0265 162.822 85.2516 163.48 85.2862C164.728 85.3209 165.682 85.0094 166.341 84.3507C167.034 83.6574 167.501 82.7558 167.744 81.6466C167.987 80.5027 168.108 79.2895 168.108 78.0069C168.108 76.0659 167.727 74.6617 166.965 73.795ZM103.447 70.6749C102.477 70.7096 101.541 70.8483 100.64 71.0909C99.7383 71.3336 99.2007 71.8361 99.0273 72.5987C98.9234 73.1186 99.0793 73.569 99.4951 73.9503C99.9111 74.3316 100.432 74.6271 101.056 74.8351C101.679 75.0083 102.252 75.0948 102.771 75.0948C103.569 75.0255 104.262 74.7823 104.852 74.3663C105.475 73.9158 105.787 73.4481 105.787 72.963C105.822 72.2698 105.649 71.7149 105.268 71.2989C104.921 70.8483 104.314 70.6402 103.447 70.6749ZM78.0732 52.0069C79.8066 51.9376 81.1592 52.3878 82.1299 53.3585C83.1005 54.3291 83.5859 55.4387 83.5859 56.6866C83.5859 57.5186 83.3949 58.3679 83.0137 59.2345C82.667 60.1011 82.1123 60.8468 81.3496 61.4708C80.5869 62.0601 79.6162 62.3898 78.4375 62.4591C77.2589 62.4938 76.2016 62.1641 75.2656 61.4708C74.3644 60.7775 73.6709 59.9282 73.1855 58.923C72.735 57.8831 72.5612 56.8949 72.665 55.9591C72.8384 54.5378 73.4805 53.5318 74.5898 52.9425C75.699 52.3533 76.8601 52.0416 78.0732 52.0069ZM157.661 17.5509C160.053 17.8629 161.786 18.5564 162.86 19.631C163.97 20.7056 164.594 21.9709 164.732 23.4269C164.906 24.8828 164.75 26.3733 164.265 27.8985C163.987 28.7652 163.571 29.8747 163.017 31.2267C162.497 32.5439 161.942 33.8958 161.353 35.2823C160.798 36.6689 160.278 37.9172 159.793 39.0265C159.308 40.1011 158.978 40.8639 158.805 41.3146C158.25 42.5972 157.592 43.967 156.829 45.423C156.066 46.8443 155.216 48.1789 154.28 49.4269C153.379 50.6746 152.426 51.697 151.421 52.4942C150.45 53.2916 149.497 53.6905 148.561 53.6905C147.313 53.6905 146.29 53.3787 145.493 52.755C144.73 52.131 144.158 51.3502 143.776 50.4142C143.395 49.5131 143.153 48.6292 143.049 47.7628C143.95 48.0054 144.782 47.9884 145.545 47.711C146.308 47.4684 146.966 47.1036 147.521 46.6183C148.04 46.133 148.353 45.5782 148.457 44.9542C148.596 44.3304 148.63 43.7754 148.561 43.2901C148.387 41.3489 147.85 39.2513 146.948 36.9981L139.305 18.0704C139.825 18.0011 140.501 17.9146 141.333 17.8106C142.2 17.672 143.101 17.6549 144.037 17.7589C145.007 17.8283 145.909 18.0878 146.74 18.5382C147.607 18.9542 148.318 19.6657 148.873 20.671C149.081 21.0176 149.323 21.5548 149.601 22.2823C149.913 22.9757 150.225 23.7213 150.537 24.5187C150.884 25.2812 151.161 25.9397 151.369 26.4942C151.75 27.3262 152.148 28.0026 152.564 28.5226C153.015 29.0079 153.466 29.2682 153.917 29.3028C154.298 29.3374 154.679 29.1986 155.061 28.8868C155.442 28.5402 155.754 28.1069 155.997 27.587C156.205 27.1017 156.447 26.3731 156.725 25.4024C157.002 24.4321 157.227 23.6176 157.4 22.9591C157.712 21.7459 157.869 20.7056 157.869 19.839C157.904 18.9725 157.834 18.2095 157.661 17.5509ZM91.6758 16.6671C92.6809 16.6324 93.3916 16.6667 93.8076 16.7706C94.2235 16.8399 94.5704 16.9093 94.8477 16.9786C94.6397 17.6025 94.4668 18.5385 94.3281 19.7862C94.1895 21.0342 94.085 22.4562 94.0156 24.0509C93.981 25.6108 93.9468 27.24 93.9121 28.9386C93.8774 30.6371 93.8604 32.2664 93.8604 33.8263C93.895 35.3862 93.9292 36.7732 93.9639 37.9864C93.9985 38.7491 94.0508 39.6857 94.1201 40.795C94.2241 41.9042 94.4493 42.9788 94.7959 44.0187C95.1426 45.0587 95.6973 45.8908 96.46 46.5148C95.5933 47.1041 94.7089 47.5201 93.8076 47.7628C92.9065 48.04 92.0227 48.1094 91.1562 47.9708C90.9136 47.9015 90.6532 47.815 90.376 47.711C90.0986 47.6417 89.7168 47.5372 89.2314 47.3985C88.4342 47.156 87.4983 47.1036 86.4238 47.2423C85.3492 47.381 84.2226 47.5548 83.0439 47.7628C81.9 48.0055 80.7733 48.127 79.6641 48.1271C77.8614 48.1271 76.0585 47.8145 74.2559 47.1905C72.4533 46.5319 70.8241 45.5268 69.3682 44.1749C67.9122 42.8229 66.8027 41.1065 66.04 39.0265C65.2774 36.9465 65.0523 34.4501 65.3643 31.5382C65.5723 29.5277 66.1442 27.6903 67.0801 26.0265C68.0161 24.3279 69.1598 22.8716 70.5117 21.6583C71.8983 20.4104 73.3546 19.4576 74.8799 18.7989C76.4399 18.1056 77.9483 17.776 79.4043 17.8106C80.5134 17.8453 81.3629 17.8795 81.9521 17.9142C82.5761 17.9488 83.3732 18.0363 84.3438 18.1749C84.9331 18.2442 85.6787 18.1568 86.5801 17.9142C87.4813 17.6715 88.3829 17.4122 89.2842 17.1349C90.22 16.8229 91.0172 16.6671 91.6758 16.6671ZM29 6.0587C29.1734 6.09336 29.5545 6.14565 30.1436 6.21495C30.7674 6.24961 31.4783 6.30091 32.2754 6.37022C33.1421 6.40489 34.4947 6.45714 36.332 6.52647C38.2039 6.5958 40.1105 6.66515 42.0518 6.73448C42.0518 6.73448 42.3292 6.75157 42.8838 6.78624C43.473 6.78624 44.2009 6.82142 45.0674 6.89073C45.9339 6.96005 46.8356 7.06362 47.7715 7.20225C48.7074 7.30625 49.5225 7.44495 50.2158 7.61827C52.4691 8.20759 54.3585 9.02263 55.8838 10.0626C57.4438 11.0679 58.6919 12.1603 59.6279 13.339C60.5984 14.5174 61.3262 15.6786 61.8115 16.8224C62.2969 17.9317 62.5923 18.8854 62.6963 19.6827C62.8696 20.7227 62.9902 21.8493 63.0596 23.0626C63.1636 24.2759 63.1636 25.7492 63.0596 27.4825C62.9556 29.1811 62.7133 31.2786 62.332 33.7745C61.812 37.1372 60.4423 39.9631 58.2236 42.2511C56.005 44.5042 53.2141 45.9777 49.8516 46.671C48.9157 46.8789 47.8239 47.0348 46.5762 47.1388L42.832 47.3468C41.6187 47.3814 40.5263 47.4337 39.5557 47.503C38.689 47.6763 37.6488 47.797 36.4355 47.8663C35.2223 47.9356 34.0785 47.9185 33.0039 47.8146C31.9292 47.7106 31.1494 47.5196 30.6641 47.2423C30.9413 46.757 31.1666 46.0291 31.3398 45.0587C31.5132 44.0534 31.6519 42.961 31.7559 41.7823C31.8598 40.6038 31.894 39.477 31.8594 38.4024L31.7041 20.7745C31.7041 19.3534 31.686 18.0536 31.6514 16.8751C31.6514 15.6964 31.6172 14.7769 31.5479 14.1183C31.4785 13.3904 31.2011 12.749 30.7158 12.1944C30.2652 11.6398 29.9355 11.085 29.7275 10.5304C29.173 9.00517 28.9307 7.51458 29 6.0587ZM101.384 18.1222C102.146 18.0529 102.979 18.0528 103.88 18.1222C104.781 18.1915 105.648 18.3654 106.479 18.6427C107.346 18.8853 108.075 19.2843 108.664 19.839C109.288 20.3935 109.652 21.1387 109.756 22.0743C109.929 23.3917 109.999 25.1603 109.964 27.379C109.929 29.5629 109.877 31.9549 109.808 34.5548C109.738 37.12 109.755 39.6507 109.859 42.1466C109.894 42.7706 110.085 43.3082 110.432 43.7589C110.813 44.1747 111.263 44.573 111.783 44.9542C111.541 45.2662 111.229 45.5959 110.848 45.9425C110.466 46.2891 109.894 46.6188 109.132 46.9308C108.404 47.2081 107.346 47.4332 105.96 47.6065C105.509 47.6412 104.936 47.589 104.243 47.4503C103.55 47.3462 102.857 47.0173 102.164 46.463C101.505 45.8737 100.968 44.9549 100.552 43.7071C100.136 42.4245 99.9619 40.6729 100.031 38.4542C100.066 38.0728 100.066 37.3277 100.031 36.2189C100.031 35.1095 100.014 33.792 99.9795 32.2667C99.9795 30.7414 99.9624 29.1636 99.9277 27.5343C99.9277 25.9052 99.9106 24.3974 99.876 23.0108C99.876 21.5895 99.8579 20.4449 99.8232 19.5782V18.2267C100.135 18.192 100.656 18.1568 101.384 18.1222ZM131.569 17.2911C132.263 17.1179 132.904 17.2907 133.493 17.8106C134.082 18.3306 134.602 19.0413 135.053 19.9425C135.538 20.8091 135.937 21.7106 136.249 22.6466C136.561 23.5479 136.803 24.3107 136.977 24.9347C137.147 25.547 137.234 25.8587 137.237 25.8702C137.237 25.8702 136.821 25.9577 135.989 26.131C135.192 26.2696 134.186 26.5641 132.973 27.0148C131.794 27.4308 130.615 28.072 129.437 28.9386C128.743 29.4585 128.085 30.0827 127.461 30.8106C126.837 31.5386 126.299 32.4744 125.849 33.6183C125.398 34.7275 125.069 36.2011 124.861 38.0382C124.757 38.9741 124.739 39.9451 124.809 40.9503C124.878 41.9556 124.913 42.8058 124.913 43.4991C124.948 44.1229 125.034 44.5734 125.173 44.8507C125.346 45.0934 125.485 45.3014 125.589 45.4747C125.138 45.8907 124.306 46.359 123.093 46.879C121.914 47.3642 120.614 47.6065 119.193 47.6065C117.807 47.6065 116.784 47.1562 116.125 46.255C115.466 45.3537 115.137 44.1054 115.137 42.5108C115.137 42.1295 115.12 41.2974 115.085 40.0148C115.085 38.6974 115.068 37.1197 115.033 35.2823C115.033 33.4451 115.015 31.5385 114.98 29.5626C114.98 27.5867 114.963 25.7495 114.929 24.0509C114.929 22.3177 114.912 20.9136 114.877 19.839V18.2267C115.224 18.1573 115.813 18.1051 116.645 18.0704C117.511 18.0357 118.448 18.0709 119.453 18.1749C120.458 18.2789 121.394 18.5212 122.261 18.9024C122.677 19.0758 123.232 19.2496 123.925 19.423C124.653 19.5616 125.346 19.631 126.005 19.631C126.698 19.631 127.201 19.5264 127.513 19.3185C128.171 18.8331 128.831 18.4171 129.489 18.0704C130.182 17.7238 130.876 17.4644 131.569 17.2911ZM80.2881 25.8702C78.6935 25.8702 77.2895 26.4602 76.0762 27.6388C74.8976 28.8174 74.3428 30.6718 74.4121 33.2023C74.4814 34.9356 74.793 36.2882 75.3477 37.2589C75.9369 38.1948 76.6305 38.8531 77.4277 39.2345C78.2597 39.6158 79.0576 39.8067 79.8203 39.8067C81.3454 39.8413 82.4723 39.2514 83.2002 38.0382C83.928 36.8249 84.2749 35.1433 84.2402 32.9942C84.2402 32.405 84.1709 31.7113 84.0322 30.9142C83.9282 30.117 83.7201 29.3369 83.4082 28.5743C83.1309 27.8117 82.7319 27.1705 82.2119 26.6505C81.7266 26.1306 81.0853 25.8703 80.2881 25.8702ZM44.0801 16.0431C43.4214 16.0084 42.9009 16.4415 42.5195 17.3429C42.1383 18.2442 41.8789 19.7006 41.7402 21.711C41.6709 23.0282 41.6186 24.0163 41.584 24.6749C41.5493 25.2987 41.5322 25.8186 41.5322 26.2345C41.5669 26.6505 41.5669 27.1881 41.5322 27.8468V28.7823C41.5669 29.4063 41.6182 30.1872 41.6875 31.1231C41.7568 32.0243 41.8443 32.9603 41.9482 33.9308C42.0522 34.8665 42.1729 35.6638 42.3115 36.3224C42.4848 37.0503 42.8145 37.4664 43.2998 37.5704C43.7851 37.6397 44.2012 37.6227 44.5479 37.5187C45.9692 37.172 47.3038 36.4957 48.5518 35.4903C49.8342 34.4505 50.8394 33.0642 51.5674 31.3312C52.33 29.5632 52.6074 27.4135 52.3994 24.8829C52.1567 21.5896 51.2905 19.3013 49.7998 18.0187C48.3439 16.7361 46.4373 16.0778 44.0801 16.0431ZM103.983 6.00694C105.717 5.93761 107.069 6.38783 108.04 7.3585C109.011 8.32913 109.496 9.43869 109.496 10.6866C109.496 11.5186 109.305 12.3679 108.924 13.2345C108.577 14.1011 108.022 14.8468 107.26 15.4708C106.497 16.0601 105.526 16.3898 104.348 16.4591C103.169 16.4938 102.112 16.1641 101.176 15.4708C100.275 14.7775 99.581 13.9282 99.0957 12.923C98.6451 11.8831 98.4713 10.8949 98.5752 9.95909C98.7485 8.53775 99.3907 7.53182 100.5 6.94249C101.609 6.35332 102.77 6.04164 103.983 6.00694Z" fill="#095CD1"/>
</svg>
